<svg width="30" height="30" viewBox="0 0 30 30" fill="none" xmlns="http://www.w3.org/2000/svg">
<path d="M18.0004 9C18.0004 8.73478 17.8951 8.48043 17.7075 8.29289C17.52 8.10536 17.2656 8 17.0004 8C16.7352 8 16.4808 8.10536 16.2933 8.29289C16.1057 8.48043 16.0004 8.73478 16.0004 9V12H13.0003C12.7351 12 12.4807 12.1054 12.2931 12.2929C12.1056 12.4804 12.0002 12.7348 12.0002 13C12.0002 13.2652 12.1056 13.5196 12.2931 13.7071C12.4807 13.8946 12.7351 14 13.0003 14H16.0004V17C16.0004 17.2652 16.1057 17.5196 16.2933 17.7071C16.4808 17.8946 16.7352 18 17.0004 18C17.2656 18 17.52 17.8946 17.7075 17.7071C17.8951 17.5196 18.0004 17.2652 18.0004 17V14H21.0005C21.2657 14 21.5201 13.8946 21.7077 13.7071C21.8952 13.5196 22.0006 13.2652 22.0006 13C22.0006 12.7348 21.8952 12.4804 21.7077 12.2929C21.5201 12.1054 21.2657 12 21.0005 12H18.0004V9Z" fill="#0FA958"/>
<path d="M1.00003 0C0.734806 0 0.480444 0.105357 0.292902 0.292893C0.10536 0.48043 0 0.734784 0 1C0 1.26522 0.10536 1.51957 0.292902 1.70711C0.480444 1.89464 0.734806 2 1.00003 2H3.2201L4.02212 5.214L7.01822 21.184C7.06112 21.4132 7.18273 21.6201 7.36205 21.7691C7.54136 21.9181 7.7671 21.9998 8.00025 22H10.0003C8.93941 22 7.92196 22.4214 7.17179 23.1716C6.42163 23.9217 6.00019 24.9391 6.00019 26C6.00019 27.0609 6.42163 28.0783 7.17179 28.8284C7.92196 29.5786 8.93941 30 10.0003 30C11.0612 30 12.0787 29.5786 12.8288 28.8284C13.579 28.0783 14.0004 27.0609 14.0004 26C14.0004 24.9391 13.579 23.9217 12.8288 23.1716C12.0787 22.4214 11.0612 22 10.0003 22H24.0007C22.9398 22 21.9224 22.4214 21.1722 23.1716C20.4221 23.9217 20.0006 24.9391 20.0006 26C20.0006 27.0609 20.4221 28.0783 21.1722 28.8284C21.9224 29.5786 22.9398 30 24.0007 30C25.0616 30 26.0791 29.5786 26.8293 28.8284C27.5794 28.0783 28.0009 27.0609 28.0009 26C28.0009 24.9391 27.5794 23.9217 26.8293 23.1716C26.0791 22.4214 25.0616 22 24.0007 22H26.0008C26.2339 21.9998 26.4597 21.9181 26.639 21.7691C26.8183 21.6201 26.9399 21.4132 26.9828 21.184L29.9829 5.184C30.0099 5.03967 30.0048 4.89117 29.968 4.74904C29.9311 4.6069 29.8634 4.47463 29.7697 4.36161C29.676 4.24859 29.5585 4.1576 29.4256 4.0951C29.2927 4.03261 29.1477 4.00014 29.0009 4H5.78018L4.97015 0.758C4.91617 0.541568 4.79137 0.349398 4.6156 0.212049C4.43984 0.0747014 4.22319 6.1623e-05 4.00012 0H1.00003ZM8.83027 20L6.20419 6H27.7969L25.1708 20H8.83027V20ZM12.0004 26C12.0004 26.5304 11.7896 27.0391 11.4146 27.4142C11.0395 27.7893 10.5308 28 10.0003 28C9.46986 28 8.96114 27.7893 8.58605 27.4142C8.21097 27.0391 8.00025 26.5304 8.00025 26C8.00025 25.4696 8.21097 24.9609 8.58605 24.5858C8.96114 24.2107 9.46986 24 10.0003 24C10.5308 24 11.0395 24.2107 11.4146 24.5858C11.7896 24.9609 12.0004 25.4696 12.0004 26V26ZM26.0008 26C26.0008 26.5304 25.7901 27.0391 25.415 27.4142C25.0399 27.7893 24.5312 28 24.0007 28C23.4703 28 22.9616 27.7893 22.5865 27.4142C22.2114 27.0391 22.0007 26.5304 22.0007 26C22.0007 25.4696 22.2114 24.9609 22.5865 24.5858C22.9616 24.2107 23.4703 24 24.0007 24C24.5312 24 25.0399 24.2107 25.415 24.5858C25.7901 24.9609 26.0008 25.4696 26.0008 26V26Z" fill="#0FA958"/>
</svg>
